<?xml version="1.0" encoding="UTF-8" standalone="no"?>
<svg
   xmlns:dc="http://purl.org/dc/elements/1.1/"
   xmlns:cc="http://creativecommons.org/ns#"
   xmlns:rdf="http://www.w3.org/1999/02/22-rdf-syntax-ns#"
   xmlns:svg="http://www.w3.org/2000/svg"
   xmlns="http://www.w3.org/2000/svg"
   xmlns:sodipodi="http://sodipodi.sourceforge.net/DTD/sodipodi-0.dtd"
   xmlns:inkscape="http://www.inkscape.org/namespaces/inkscape"
   width="110"
   height="110"
   viewBox="0 0 29.1038 29.1038"
   version="1.1"
   id="svg8"
   inkscape:version="1.0.1 (3bc2e813f5, 2020-09-07)"
   sodipodi:docname="bukanindalo-icon-bg.svg"
   inkscape:export-filename="C:\Users\user 1\Desktop\Software Development\Projects\Freelance\bukanindalo\assets\images\icon-bg.png"
   inkscape:export-xdpi="26.666666"
   inkscape:export-ydpi="26.666666">
  <defs
     id="defs2">
    <rect
       x="49.514881"
       y="118.30655"
       width="38.931549"
       height="38.931549"
       id="rect839" />
    <clipPath
       clipPathUnits="userSpaceOnUse"
       id="clipPath1415">
      <path
         id="path1417"
         style="fill:#ff0000;fill-opacity:1;fill-rule:nonzero;stroke:none;stroke-width:0.264583"
         d="m 52.805082,-44.022188 c 0.02203,0.282929 -0.0299,0.540942 -0.135992,0.795191 0.01551,0.0511 0.02351,0.09788 0.0091,0.120513 -0.286421,0.450634 -0.554133,0.920506 -0.876846,1.343034 -0.03049,0.698811 -0.222389,1.390647 -0.855027,1.785621 -0.474673,0.29635 -0.814302,0.308653 -1.285837,0.357334 -5.2e-4,0.0013 -0.0066,0.01474 -0.0071,0.01579 0.04488,0.02048 0.105294,0.03532 0.09489,0.07684 -0.02016,0.08045 -0.119194,0.111357 -0.184197,0.159985 -0.01595,0.01194 -3.149489,2.157479 -1.548689,0.494165 -0.159399,-0.0022 -0.330957,-0.0096 -0.611459,-0.0074 -0.750502,0.01614 -1.149754,-0.258951 -1.362459,-0.655202 v 14.36339 H 115.0702 v -18.849286 z m -3.151671,4.41748 c -0.0066,-0.003 -0.01429,-0.0055 -0.0198,-0.0089 -0.01642,0.07306 0.0077,0.03238 0.0198,0.0089 z m -0.0198,-0.0089 c 5.19e-4,-0.0022 5.19e-4,-0.0022 10e-4,-0.0042 -0.0029,2.69e-4 -0.0052,8.08e-4 -0.0081,0.0011 0.0018,0.0013 0.0051,0.0019 0.0071,0.0032 z m 10e-4,-0.0042 c 0.0092,-0.0011 0.01681,-0.0016 0.02588,-0.0027 0.01894,-0.03855 0.04009,-0.09168 0.210586,-0.462061 -0.09832,0.08981 -0.131745,0.121281 -0.215154,0.198403 0.01057,0.08772 -0.004,0.18804 -0.0213,0.26629 z" />
    </clipPath>
    <clipPath
       clipPathUnits="userSpaceOnUse"
       id="clipPath1555">
      <path
         id="path1557"
         style="fill:#ff0000;fill-opacity:1;fill-rule:nonzero;stroke:none;stroke-width:0.0185219"
         d="m 109.90056,156.20032 v 54.36132 c 0.25273,0.1494 0.47513,0.31573 0.71093,0.47461 0.10735,-0.023 0.30953,-0.0724 0.39453,-0.0898 0.80971,-0.16619 1.63191,-0.25629 2.45508,-0.33789 v -1.35352 c -0.10303,-2.44831 0.0771,-4.46662 0.82813,-6.90625 0.0633,-0.20556 0.15798,-0.39874 0.24805,-0.59375 -1.1489,-2.94986 -1.58573,-5.94677 -0.0645,-8.54101 -3e-5,-0.2065 0.006,-0.4125 0.008,-0.61914 -0.0399,-0.98791 -0.0557,-1.97343 -0.0469,-2.96094 -0.2161,-1.2352 -0.0791,-2.54756 0.041,-4.03125 -0.002,-0.1855 -0.007,-0.23443 -0.008,-0.45508 -0.06,-1.75558 0.47432,-3.45343 0.96094,-5.13672 -2e-4,-0.34514 -0.0122,-0.69003 -0.008,-1.03515 0.004,-0.35836 -0.0506,-0.72865 0.0371,-1.07618 0.32201,-1.27791 0.78889,-2.51409 1.18359,-3.77148 0.70193,-2.23617 1.39565,-3.22821 2.08203,-3.36523 1.30939,-0.2614 2.59466,2.59823 3.86719,5.85937 -0.56085,-3.44913 -0.83479,-6.41631 0.51172,-6.56445 0.64342,-0.0708 1.65587,0.49837 3.17773,1.95898 1.22865,1.17921 2.4569,2.35791 3.68555,3.53711 0.21046,0.82931 0.47656,1.64812 0.68359,2.47852 0.0488,-0.22382 0.0459,-0.23339 0.006,0.0176 1.5e-4,6.1e-4 -1.5e-4,0.001 0,0.002 0.0932,0.3758 0.17821,0.75343 0.23242,1.13672 0.12186,0.8607 -0.0311,1.9671 -0.2832,3.02929 0.0201,0.6542 0.0576,1.30756 0.0957,1.96094 0.32039,-0.0122 0.62349,0.0356 0.88672,0.22461 2.60988,1.87448 7.03625,9.86823 7.12891,8.03711 0.22818,2.6704 0.18634,6.15004 -2.2207,8.40039 -0.64869,0.60647 -1.44238,0.99127 -2.28321,1.30664 -0.0138,0.0115 -0.027,0.0238 -0.041,0.0352 -0.10859,0.1808 -0.17283,0.25904 -0.29688,0.47656 -0.45487,0.79765 -0.85584,1.62406 -1.25195,2.45313 0.57527,2.83963 0.0689,5.18402 -1.10547,6.79687 0.20852,0.71121 0.39295,1.46124 0.5293,2.2793 0.14035,0.8422 0.36051,1.67652 0.45703,2.52343 4.04755,3.59708 2.74566,9.62199 -3.89063,11.65626 v 5.12891 c 0.25031,-0.0126 0.50235,-0.0278 0.7461,-0.0293 12.80795,-0.0776 16.47305,14.96167 0.0293,23.18359 -1.42858,0.71429 -2.88079,1.3818 -4.28515,2.14258 -4.22476,2.28866 -5.72555,3.67669 -10.42188,5.73437 -0.73748,0.32312 -1.37414,0.5487 -1.90625,0.71485 -0.27327,0.20015 -0.54704,0.39946 -0.82031,0.59961 -1.42915,-0.18714 -0.89091,-0.0653 0.82031,-0.59961 0.15371,-0.11258 0.30724,-0.22532 0.46094,-0.33789 7.45605,-5.46105 3.18845,-6.21514 -3.33398,-6.30274 V 279.5032 H 233.19939 V 156.20032 Z m 24.26953,45.98242 c 0.006,-0.009 0.008,-0.0162 0.0137,-0.0254 -0.72165,0.26896 -1.46732,0.50219 -2.19922,0.75586 0.0126,0.0339 0.0248,0.0677 0.0371,0.10156 0.85336,-0.033 1.58674,-0.37696 2.14844,-0.83203 z m 0.0137,-0.0254 c 0.009,-0.003 0.0183,-0.006 0.0273,-0.01 1.50574,-1.24864 1.73112,-2.91019 -0.0273,0.01 z m -3.31055,-16.3711 c 0.29226,0.19473 0.58127,0.39448 0.87696,0.58399 0.19918,0.12764 -0.31715,-0.37777 -0.53711,-0.46485 -0.0957,-0.0379 -0.23387,-0.0799 -0.33985,-0.11914 z m -17.41211,44.10743 c -0.45632,0.0684 -0.92656,0.12475 -1.41797,0.16406 -0.86284,0.069 -1.38525,0.10445 -2.14257,0.16211 v 11.01172 c 0.0155,-0.01 0.0293,-0.0222 0.0449,-0.0312 1.62708,-0.98628 2.62862,-1.57127 3.51562,-2.07031 z" />
    </clipPath>
    <clipPath
       clipPathUnits="userSpaceOnUse"
       id="clipPath1589">
      <path
         id="path1591"
         style="fill:#ff0000;fill-opacity:1;fill-rule:nonzero;stroke:none;stroke-width:0.264583"
         d="M 101.59053,18.457149 V 43.39637 h 72.9972 c 0.12166,-0.1114 0.36118,-0.206469 0.47815,-0.315658 0.53352,-0.498004 1.07175,-0.990954 1.61771,-1.474657 -0.24888,-0.337876 -0.40182,-0.815928 -0.39846,-1.485179 2.6e-4,-0.344846 4e-5,-0.689995 0,-1.034838 -0.10718,-0.16752 -0.1937,-0.367029 -0.27867,-0.641316 -0.41533,-0.586053 -0.42553,-1.07565 -0.26395,-1.885015 -0.1687,-0.100653 -0.33862,-0.198973 -0.50658,-0.300927 -0.0144,-0.0087 -5.2e-4,-0.03435 -5.2e-4,-0.05156 -2.4e-4,-0.127549 -5.2e-4,-0.255448 -0.001,-0.383002 -0.001,-0.491584 -0.002,-0.983061 -0.002,-1.474657 -0.0872,-0.01621 -0.008,-0.182385 -5.2e-4,-0.284092 9e-5,-0.04191 -1.3e-4,-0.08382 0,-0.125738 0.001,-0.02551 5.2e-4,-0.02718 0.002,-0.05051 -7.8e-4,-0.125908 -7.8e-4,-0.25183 -0.001,-0.377738 2.6e-4,-0.04502 -0.001,-0.195598 0.003,-0.314608 -1.3e-4,-0.106679 -0.007,-0.213449 -0.0107,-0.320396 -0.005,-0.07155 -0.006,-0.119557 -0.0137,-0.216226 -0.0287,-0.255359 -0.0454,-0.53885 -0.0218,-0.811771 5.2e-4,-0.02559 -0.001,-0.05123 0,-0.07681 0.0139,-0.325716 0.12893,-0.894104 0.25227,-1.000115 -0.0153,-0.231819 -0.0299,-0.463595 0.004,-0.691821 0.16763,-1.122365 1.1602,-1.654944 1.82531,-2.409535 0.22382,-0.112537 0.41128,-0.210273 0.57257,-0.296194 0.15501,-0.273999 0.33272,-0.513444 0.53297,-0.680773 0.17298,-0.120991 -0.0351,0.01178 -0.0655,0.156251 -0.0207,0.09863 -0.0369,0.198334 -0.0503,0.2983 0.0663,-0.03626 0.11863,-0.06376 0.1736,-0.09312 0.29127,-0.681233 0.53648,-1.087548 0.61063,-1.235808 -0.0833,0.04415 -0.16647,0.08842 -0.24973,0.132578 0.25203,-0.20678 0.31213,-0.256328 0.25024,-0.132578 0.27069,-0.143522 0.54146,-0.286825 0.81215,-0.430349 0.23515,-0.084 0.49352,-0.07204 0.74211,-0.08049 0.0153,-5.12e-4 0.0366,0.01327 0.0472,0.02841 0.11217,-0.115329 0.22534,-0.229072 0.3472,-0.333021 0.17553,-0.149715 0.3223,-0.247457 0.45886,-0.324603 0.0827,-0.141255 0.17244,-0.278638 0.25329,-0.42088 1.95849,-0.431691 2.35156,-0.722775 2.51513,-0.687086 0.10294,0.02246 0.11579,0.174873 0.37004,0.502425 0.0612,0.0027 0.12373,0.0081 0.1868,0.0142 -0.0244,-0.03173 -0.0487,-0.0635 -0.0731,-0.09522 -0.016,-0.01808 -0.0657,-0.0376 -0.0482,-0.05419 0.0317,-0.03016 0.3126,-0.07676 0.33755,-0.08155 0.0521,-0.0098 0.20602,-0.04684 0.15583,-0.02946 -0.0804,0.02784 -0.33187,0.0649 -0.24719,0.06103 0.36815,-0.01678 0.73296,-0.07972 1.10097,-0.09996 0.30192,-0.0166 0.62268,0.01852 0.92636,0.02788 0.82272,-0.06347 1.36091,0.25497 1.82632,0.715495 0.26464,0.07361 0.55129,0.172915 0.86698,0.307242 0.31581,0.134377 0.38798,0.455036 0.37612,0.839655 0.11893,0.0015 0.21576,0.0094 0.26548,0.03051 1.33369,0.565825 1.98951,0.735664 2.22986,2.274853 0.0198,0.127142 0.0133,0.254429 -0.002,0.381949 0.14112,0.223315 0.27998,0.448494 0.4274,0.666568 V 18.457149 Z m 83.21965,5.672405 c -0.0354,0.01061 -0.0852,0.02862 -0.1335,0.04525 0.002,0.0023 0.004,0.005 0.006,0.0074 0.0446,-0.0141 0.0902,-0.03093 0.13451,-0.04367 -0.002,-0.0029 -0.004,-0.006 -0.007,-0.0089 z m -6.01652,1.823461 c -0.007,0.0054 -0.01,0.0073 -0.0167,0.01315 0.005,-0.0042 0.01,-0.0084 0.0147,-0.01263 5.2e-4,-2.69e-4 0.001,-2.96e-4 0.002,-5.39e-4 z m 0.11573,1.315776 c 0.002,-5.38e-4 -0.0101,0.006 -0.006,0.0042 0.003,-0.0013 0.002,-0.0011 0.006,-0.0027 -1.3e-4,-5.39e-4 1.3e-4,-0.0011 0,-0.0016 z m -1.70856,1.640378 c -0.10176,0.04481 -0.19027,0.106228 -0.21776,0.194657 -0.0131,0.04233 0.0935,-0.01201 0.12081,-0.0463 0.0365,-0.04576 0.0675,-0.09638 0.0969,-0.148359 z m 8.63418,2.226979 c -0.059,0.06826 -0.11741,0.136993 -0.17816,0.203601 0.10893,-0.01592 0.21818,-0.02513 0.3274,-0.02999 -0.001,-0.02932 -0.001,-0.05855 -0.003,-0.08786 -0.0363,-0.01915 -0.10028,-0.05932 -0.1467,-0.08576 z m -2.8141,0.929092 c -0.005,0.01263 -0.017,0.05483 -0.0269,0.08733 7.8e-4,-1.65e-4 0.001,-2.7e-4 0.002,-5.39e-4 0.0244,-0.07548 0.0344,-0.111473 0.0249,-0.0868 z m -2.68772,1.391007 c -0.0113,0.01783 -0.0229,0.03649 -0.0345,0.05471 -0.0156,0.110835 -0.0356,0.223779 -0.0543,0.336178 0.033,-0.05064 0.0505,-0.0781 0.0701,-0.108903 1e-5,-1.75e-4 0,-2.7e-4 0,-5.39e-4 0.002,-0.09502 0.009,-0.188659 0.0188,-0.281463 z m 5.59471,3.061372 c -0.0804,0.196729 -0.17113,0.378983 -0.26801,0.561875 0.0272,-0.0036 0.054,-0.0094 0.0812,-0.01263 0.0434,5.38e-4 0.0607,0.0011 0.0812,0.0016 0.035,-0.183655 0.0698,-0.367357 0.10558,-0.550826 z m 6.99212,5.012677 c -0.23751,0.198696 -0.4591,0.367958 -0.93397,0.744431 -0.0733,0.03844 -0.14581,0.07863 -0.21878,0.117846 -0.20421,0.13414 -0.41327,0.245223 -0.62891,0.33986 -7.8e-4,5.39e-4 -0.002,5.39e-4 -0.003,0.0011 -0.14344,0.07747 -0.28751,0.153615 -0.43247,0.227803 -0.001,0.005 -0.002,0.01021 -0.003,0.01525 -0.0302,0.119648 -0.23353,0.270548 -0.49592,0.419826 h 2.71564 z" />
    </clipPath>
  </defs>
  <sodipodi:namedview
     id="base"
     pagecolor="#ffffff"
     bordercolor="#666666"
     borderopacity="1.0"
     inkscape:pageopacity="0"
     inkscape:pageshadow="2"
     inkscape:zoom="4.8271824"
     inkscape:cx="55.783134"
     inkscape:cy="58.574159"
     inkscape:document-units="px"
     inkscape:current-layer="layer1"
     inkscape:document-rotation="0"
     showgrid="false"
     units="px"
     inkscape:window-width="1267"
     inkscape:window-height="729"
     inkscape:window-x="36"
     inkscape:window-y="25"
     inkscape:window-maximized="0"
     width="140mm" />
  <metadata
     id="metadata5">
    <rdf:RDF>
      <cc:Work
         rdf:about="">
        <dc:format>image/svg+xml</dc:format>
        <dc:type
           rdf:resource="http://purl.org/dc/dcmitype/StillImage" />
        <dc:title></dc:title>
      </cc:Work>
    </rdf:RDF>
  </metadata>
  <g
     inkscape:label="Layer 1"
     inkscape:groupmode="layer"
     id="layer1">
    <text
       xml:space="preserve"
       id="text837"
       style="font-size:6px;line-height:1.25;font-family:Brasley;-inkscape-font-specification:Brasley;letter-spacing:0.264583px;word-spacing:0px;white-space:pre;shape-inside:url(#rect839);" />
    <path
       d="m 12.054966,2.7669925 c -3.1924497,0.89275 -6.2346689,3.33811 -7.6243389,6.13279 l -0.28165,0.54342 h 0.7136 c 0.63848,0 0.76997,-0.097 1.23942,-0.85395 1.6901392,-2.77527 5.6525189,-4.96834 8.9576389,-4.96834 2.47885,0 5.389615,1.22269 7.342625,3.06642 3.47412,3.2993 4.43189,8.5005195 2.40373,12.9448395 -1.16428,2.58121 -3.45535,4.69663 -6.17834,5.76407 -1.126735,0.42695 -1.220615,0.5046 -1.276975,1.08679 -0.0378,0.34937 0.0188,0.62106 0.11291,0.62106 0.413155,0 2.910785,-0.97038 3.192485,-1.22267 0.18773,-0.15532 0.52581,-0.34932 0.78871,-0.42696 0.24413,-0.0778 1.18308,-0.89276 2.06571,-1.82434 1.80282,-1.88252 2.77928,-3.62921 3.30509,-5.9387 0.41317,-1.86313 0.2817,-4.96834 -0.28163,-6.695619 -1.23952,-3.7456505 -4.16904,-6.7926405 -7.71831,-7.9959105 -1.614995,-0.5434199 -5.239345,-0.6792799 -6.760445,-0.2329 z"
       id="path144"
       style="opacity:1;fill:#165016;stroke:none;stroke-width:23.3348;stroke-miterlimit:4;stroke-dasharray:none"
       inkscape:export-filename="C:\Users\user 1\Desktop\bukanindalo\assets\images\logo.png"
       inkscape:export-xdpi="26.666666"
       inkscape:export-ydpi="26.666666" />
    <path
       d="m 2.1583571,14.625012 c 0.11249,3.571 0.30047,4.52198 1.31454,6.71504 0.69484,1.51379 2.17842,3.24105 3.5304892,4.13379 1.69011,1.08685 5.1454797,1.94078 7.3989697,1.78551 l 0.93897,-0.0581 -0.0562,-2.44533 c -0.0941,-5.35651 -1.97181,-9.33504 -5.4271997,-11.48927 -1.69012,-1.04803 -4.8262092,-1.882549 -7.1360592,-1.882549 h -0.67603 z m 4.8825992,-1.53319 0.9765,0.32993 0.0564,1.97957 c 0.0188,1.10624 -0.0188,1.99898 -0.0939,1.97957 -0.0752,0 -1.03283,-1.10622 -2.1032492,-2.44535 l -1.95304,-2.44536 1.05164,0.13593 c 0.60094,0.0583 1.5210997,0.27169 2.0656692,0.46578 z m -1.6713492,2.83348 c 1.10795,1.37797 1.9718092,2.52301 1.9342292,2.56183 -0.13134,0.15532 -3.7557892,-0.29109 -3.9248292,-0.46578 -0.11248,-0.11649 -0.22533,-1.2615 -0.28163,-2.58122 -0.0754,-1.63021 -0.0378,-2.34831 0.0938,-2.21246 0.0939,0.0971 1.08918,1.31972 2.17836,2.69763 z m 4.4882192,-1.45555 c 0.4318997,0.31053 1.0140597,0.81513 1.2957597,1.12565 l 0.52581,0.56282 -0.2066,2.30951 c -0.13149,1.28088 -0.28165,2.44534 -0.33799,2.58118 -0.0938,0.15533 -0.50706,-0.23284 -1.2018897,-1.10623 l -1.0704,-1.35852 v -2.3289 c 0,-1.30031 0.0562,-2.34832 0.11276,-2.34832 0.0562,0 0.45067,0.2523 0.88259,0.56281 z m 3.2112197,3.88151 c 0.26293,0.64044 0.67602,1.84374 0.88261,2.67828 0.39434,1.53318 0.6385,4.40549 0.3568,4.28905 -0.0752,-0.0388 -0.50706,-0.52401 -0.95774,-1.10621 -1.63374,-2.09604 -1.5023,-1.61086 -1.25817,-4.46377 0.11276,-1.39735 0.28165,-2.54238 0.33798,-2.54238 0.0754,0 0.35683,0.52401 0.63852,1.14503 z m -6.7792889,0.89276 1.8216092,0.13592 1.03284,1.2615 c 0.58211,0.67927 0.9952797,1.31971 0.9577197,1.37794 -0.0373,0.0776 -1.2394097,0.13592 -2.6478897,0.13592 H 4.8625671 l -0.50704,-0.97037 c -0.28166,-0.54341 -0.56339,-1.2615 -0.61971,-1.61082 -0.11291,-0.56283 -0.0939,-0.62107 0.30048,-0.54342 0.22536,0.0581 1.23941,0.15532 2.25351,0.21349 z m 5.1079489,4.11441 c 0.18774,0.29112 0.76994,1.04802 1.27697,1.66905 0.50705,0.62106 0.90142,1.16446 0.84508,1.20326 -0.0379,0.0583 -0.93898,-0.0388 -1.9906,-0.21345 -1.44601,-0.21348 -2.2347497,-0.44638 -3.1924597,-0.97041 -1.0892,-0.58218 -2.4788392,-1.64962 -2.4788392,-1.90192 0,-0.13592 0.9202297,-0.21346 3.2112392,-0.27171 l 1.9906097,-0.0583 z"
       id="path146"
       style="fill:#165016;stroke:none;stroke-width:0.0352778"
       inkscape:export-filename="C:\Users\user 1\Desktop\bukanindalo\assets\images\logo.png"
       inkscape:export-xdpi="26.666666"
       inkscape:export-ydpi="26.666666" />
  </g>
</svg>
